<svg xmlns="http://www.w3.org/2000/svg" viewBox="0 0 190 100">
  <rect width="190" height="100" fill="#ffffff"/>
  <rect y="0" width="190" height="7.69" fill="#b22234"/>
  <rect y="15.38" width="190" height="7.69" fill="#b22234"/>
  <rect y="30.76" width="190" height="7.69" fill="#b22234"/>
  <rect y="46.14" width="190" height="7.69" fill="#b22234"/>
  <rect y="61.52" width="190" height="7.69" fill="#b22234"/>
  <rect y="76.9" width="190" height="7.69" fill="#b22234"/>
  <rect y="92.28" width="190" height="7.72" fill="#b22234"/>
  <rect width="76" height="53.85" fill="#3c3b6e"/>
  <g fill="#ffffff">
    <circle cx="8" cy="8" r="2"/>
    <circle cx="20" cy="8" r="2"/>
    <circle cx="32" cy="8" r="2"/>
    <circle cx="44" cy="8" r="2"/>
    <circle cx="56" cy="8" r="2"/>
    <circle cx="68" cy="8" r="2"/>
    <circle cx="14" cy="16" r="2"/>
    <circle cx="26" cy="16" r="2"/>
    <circle cx="38" cy="16" r="2"/>
    <circle cx="50" cy="16" r="2"/>
    <circle cx="62" cy="16" r="2"/>
    <circle cx="8" cy="24" r="2"/>
    <circle cx="20" cy="24" r="2"/>
    <circle cx="32" cy="24" r="2"/>
    <circle cx="44" cy="24" r="2"/>
    <circle cx="56" cy="24" r="2"/>
    <circle cx="68" cy="24" r="2"/>
    <circle cx="14" cy="32" r="2"/>
    <circle cx="26" cy="32" r="2"/>
    <circle cx="38" cy="32" r="2"/>
    <circle cx="50" cy="32" r="2"/>
    <circle cx="62" cy="32" r="2"/>
    <circle cx="8" cy="40" r="2"/>
    <circle cx="20" cy="40" r="2"/>
    <circle cx="32" cy="40" r="2"/>
    <circle cx="44" cy="40" r="2"/>
    <circle cx="56" cy="40" r="2"/>
    <circle cx="68" cy="40" r="2"/>
    <circle cx="14" cy="48" r="2"/>
    <circle cx="26" cy="48" r="2"/>
    <circle cx="38" cy="48" r="2"/>
    <circle cx="50" cy="48" r="2"/>
    <circle cx="62" cy="48" r="2"/>
  </g>
</svg>
